<svg xmlns="http://www.w3.org/2000/svg" width="42.322" height="42.322" viewBox="0 0 42.322 42.322"><defs><style>.a{fill:#71b9b7;}</style></defs><g transform="translate(-836 -652)"><path class="a" d="M23.182,2A21.161,21.161,0,1,1,2,23.161,21.151,21.151,0,0,1,23.182,2Zm-.021,38.09A16.929,16.929,0,1,0,6.232,23.161,16.924,16.924,0,0,0,23.161,40.09ZM15.755,21.045a3.174,3.174,0,1,1,3.174-3.174A3.17,3.17,0,0,1,15.755,21.045Zm14.813,0a3.174,3.174,0,1,1,3.174-3.174A3.17,3.17,0,0,1,30.567,21.045ZM23.161,34.8a11.631,11.631,0,0,1-10.813-7.406H33.974A11.631,11.631,0,0,1,23.161,34.8Z" transform="translate(834 650)"/></g></svg>