<svg xmlns="http://www.w3.org/2000/svg" width="42.322" height="42.322" viewBox="0 0 42.322 42.322"><defs><style>.a{fill:#f68585;}</style></defs><g transform="translate(-836 -780)"><g transform="translate(836 780)"><circle class="a" cx="3.5" cy="3.5" r="3.5" transform="translate(10 12)"/><circle class="a" cx="3.5" cy="3.5" r="3.5" transform="translate(25 12)"/><path class="a" d="M23.182,2A21.161,21.161,0,1,1,2,23.161,21.151,21.151,0,0,1,23.182,2Zm-.021,38.09A16.929,16.929,0,1,0,6.232,23.161,16.924,16.924,0,0,0,23.161,40.09Zm0-12.7A11.628,11.628,0,0,1,34,34.8H30.461a8.413,8.413,0,0,0-14.6,0H12.327A11.628,11.628,0,0,1,23.161,27.393Z" transform="translate(-2 -2)"/></g></g></svg>