<svg xmlns="http://www.w3.org/2000/svg" width="16.264" height="17.255" viewBox="0 0 16.264 17.255"><path d="M1.845,952.4C.793,952.4,0,953.769,0,954.74a6.083,6.083,0,0,0,1.726,3.828c.893,1.071,1.9,2.063,2.6,3.054-.04.357-.377.615-.575.833l.555.555a3.717,3.717,0,0,0,.714-.893,6.81,6.81,0,0,0,1.428,2.2H6.168a.4.4,0,0,0,.04.793H7.339v2.38H6.149c-.2,0-.4.4-.4.595h4.76c0-.2-.2-.595-.4-.595H8.925v-2.38h1.131a.4.4,0,0,0,.4-.4.411.411,0,0,0-.4-.4H9.818a7.153,7.153,0,0,0,1.428-2.2,2.952,2.952,0,0,0,.714.893l.555-.555a1.678,1.678,0,0,1-.575-.833c.694-.992,1.706-1.983,2.6-3.054a6.037,6.037,0,0,0,1.726-3.828,2.342,2.342,0,0,0-1.845-2.34.508.508,0,0,0-.357.218c-.377.754-.575,1.369-.793,1.725a.884.884,0,0,1-.655.456c.04-.417.06-.813.079-1.21H3.57c.02.377.06.793.079,1.21a.884.884,0,0,1-.655-.456c-.218-.337-.417-.952-.793-1.725A.375.375,0,0,0,1.845,952.4Zm-.2.893a14.767,14.767,0,0,0,.694,1.468,1.817,1.817,0,0,0,1.388.813,29.336,29.336,0,0,0,.754,4.879c-.674-.833-1.468-1.607-2.142-2.42a5.285,5.285,0,0,1-1.547-3.312A1.962,1.962,0,0,1,1.646,953.293Zm12.991,0a1.976,1.976,0,0,1,.853,1.448,5.286,5.286,0,0,1-1.547,3.312c-.674.793-1.448,1.587-2.142,2.42a29.017,29.017,0,0,0,.754-4.879,1.853,1.853,0,0,0,1.388-.813C14.2,954.344,14.38,953.848,14.637,953.293ZM4.879,968.465q-.714,0-.714,1.19H12.1q0-1.19-.714-1.19Z" transform="translate(0 -952.4)" fill="#24b38c"/></svg>