<svg xmlns="http://www.w3.org/2000/svg" width="90" height="73.057" viewBox="0 0 90 73.057"><g transform="translate(0)"><path d="M75.166,179.711H22.894a6.167,6.167,0,0,1-6.161-6.161v-34.99a6.137,6.137,0,0,1,.358-2.069,6.17,6.17,0,0,0-4.092,5.8v34.99a6.167,6.167,0,0,0,6.161,6.161H71.432a6.171,6.171,0,0,0,5.8-4.092,6.137,6.137,0,0,1-2.069.358Zm0,0" transform="translate(-10.573 -112.815)" fill="#f7f7f7"/><path d="M327.857,89.18a1.307,1.307,0,0,0-1.838-.19L312.642,99.874,307.3,93.62a1.307,1.307,0,1,0-1.988,1.7l6.169,7.225a1.306,1.306,0,0,0,1.818.165l14.367-11.688a1.307,1.307,0,0,0,.189-1.839Zm0,0" transform="translate(-250.284 -72.632)" fill="#00825f"/><path d="M.47,158.182l29.269,24.784a8,8,0,0,0,10.379,0l15.9-13.484a1.307,1.307,0,1,0-1.69-1.993l-15.9,13.484a5.4,5.4,0,0,1-7,0L2.159,156.187a1.307,1.307,0,0,0-1.689,2Zm0,0" transform="translate(-0.008 -127.923)" fill="#24b38c"/><path d="M66.862,0a23.128,23.128,0,0,0-23.1,21.785H8.563A8.572,8.572,0,0,0,0,30.347V64.494a8.522,8.522,0,0,0,1.976,5.466,1.261,1.261,0,0,0,.423.471,8.537,8.537,0,0,0,6.163,2.626H59.575a8.537,8.537,0,0,0,6.157-2.62,1.272,1.272,0,0,0,.427-.474,8.522,8.522,0,0,0,1.979-5.468V46.241A23.138,23.138,0,0,0,66.862,0ZM65.587,64.494a5.976,5.976,0,0,1-.736,2.88l-15.328-15.6A1.275,1.275,0,0,0,47.7,53.566l15.47,15.74a5.981,5.981,0,0,1-3.6,1.2H8.563A5.983,5.983,0,0,1,4.955,69.3L20.341,53.564a1.275,1.275,0,1,0-1.823-1.783L3.281,67.365a5.97,5.97,0,0,1-.731-2.871V30.347a6.018,6.018,0,0,1,6.012-6.012H43.756A23.137,23.137,0,0,0,65.587,46.241Zm1.275-20.769A20.587,20.587,0,1,1,87.449,23.138,20.587,20.587,0,0,1,66.862,43.725Zm0,0" fill="#24b38c"/></g></svg>