<svg xmlns="http://www.w3.org/2000/svg" width="15.903" height="15.552" viewBox="0 0 15.903 15.552"><path d="M6.456,3.76,5.316,2.62A8.314,8.314,0,0,0,2.03,8.88h1.6A6.736,6.736,0,0,1,6.456,3.76Zm9.881,5.12h1.6A8.365,8.365,0,0,0,14.647,2.62L13.514,3.76A6.775,6.775,0,0,1,16.338,8.88Zm-1.571.4a4.859,4.859,0,0,0-3.589-5.04V3.7a1.2,1.2,0,1,0-2.393,0v.542A4.845,4.845,0,0,0,5.2,9.279v3.988l-1.6,1.6v.8h12.76v-.8l-1.6-1.6ZM9.981,18.052a1.4,1.4,0,0,0,.319-.032,1.618,1.618,0,0,0,1.148-.941,1.6,1.6,0,0,0,.12-.622H8.378a1.607,1.607,0,0,0,1.6,1.6Z" transform="translate(-2.03 -2.5)" fill="#808784"/></svg>