<svg xmlns="http://www.w3.org/2000/svg" width="179.142" height="21.59" viewBox="0 0 179.142 21.59"><g transform="translate(-14 -22)"><path d="M5.586-5.25H1.806V-8.876h4v-.56H1.148V0H6.034V-.56H1.806V-4.69h3.78ZM7.658,0h.658V-4.158a2.008,2.008,0,0,1,.1-.6A2.147,2.147,0,0,1,10.43-6.3c1.386,0,1.862,1.106,1.862,2.324V0h.658V-4.032c0-2.52-1.694-2.842-2.338-2.842A2.522,2.522,0,0,0,8.3-5.5H8.274L8.218-6.72H7.6c.028.532.056.994.056,1.61ZM19.95-6.72l-.028,1.134h-.028a2.38,2.38,0,0,0-2.268-1.288c-1.484,0-3.024,1.232-3.024,3.57A3.045,3.045,0,0,0,17.486,0a2.516,2.516,0,0,0,2.338-1.3h.028V-.35c0,1.988-1.022,2.716-2.436,2.716a3.532,3.532,0,0,1-1.988-.56l-.238.546a3.8,3.8,0,0,0,2.128.574,3.352,3.352,0,0,0,2.282-.8c.56-.532.91-1.386.91-3.108v-4c0-.7.028-1.232.056-1.736Zm-.1,3.934a2.074,2.074,0,0,1-.126.714A2.181,2.181,0,0,1,17.654-.56c-1.582,0-2.38-1.3-2.38-2.814,0-1.778.98-2.954,2.408-2.954a2.183,2.183,0,0,1,2.086,1.54,2.314,2.314,0,0,1,.084.644ZM27.048,0a12.063,12.063,0,0,1-.1-1.6V-4.214c0-1.2-.364-2.66-2.31-2.66a3.635,3.635,0,0,0-1.96.574l.21.49a2.86,2.86,0,0,1,1.68-.5c1.6-.014,1.722,1.316,1.722,1.988v.168c-2.73-.028-4.1.91-4.1,2.464A1.834,1.834,0,0,0,24.164.154a2.52,2.52,0,0,0,2.142-1.12h.042l.1.966Zm-.756-2.156a1.456,1.456,0,0,1-.07.406A2.023,2.023,0,0,1,24.234-.406a1.285,1.285,0,0,1-1.344-1.4c0-1.61,1.932-1.834,3.4-1.792Zm7.63-4.564-.028,1.134h-.028A2.38,2.38,0,0,0,31.6-6.874c-1.484,0-3.024,1.232-3.024,3.57A3.045,3.045,0,0,0,31.458,0,2.516,2.516,0,0,0,33.8-1.3h.028V-.35c0,1.988-1.022,2.716-2.436,2.716a3.532,3.532,0,0,1-1.988-.56l-.238.546a3.8,3.8,0,0,0,2.128.574,3.352,3.352,0,0,0,2.282-.8c.56-.532.91-1.386.91-3.108v-4c0-.7.028-1.232.056-1.736Zm-.1,3.934a2.074,2.074,0,0,1-.126.714A2.181,2.181,0,0,1,31.626-.56c-1.582,0-2.38-1.3-2.38-2.814,0-1.778.98-2.954,2.408-2.954a2.183,2.183,0,0,1,2.086,1.54,2.314,2.314,0,0,1,.084.644ZM41.8-3.43a1.666,1.666,0,0,0,.028-.406c0-.966-.42-3.038-2.618-3.038-1.736,0-3.024,1.4-3.024,3.64A3.08,3.08,0,0,0,39.326.14,4.494,4.494,0,0,0,41.44-.28l-.168-.532a3.9,3.9,0,0,1-1.862.378c-1.386,0-2.562-.84-2.562-3ZM36.89-3.962a2.388,2.388,0,0,1,2.24-2.366,2.065,2.065,0,0,1,2,2.366ZM43.54,0H44.2V-4.144a1.882,1.882,0,0,1,.112-.644A2.066,2.066,0,0,1,46.172-6.3c1.078,0,1.666.882,1.666,2.1V0H48.5V-4.312a1.964,1.964,0,0,1,.126-.658A1.933,1.933,0,0,1,50.386-6.3c1.162,0,1.75.9,1.75,2.408V0h.658V-3.962c0-2.548-1.526-2.912-2.184-2.912a2.3,2.3,0,0,0-1.61.56,2.674,2.674,0,0,0-.686.91h-.028a2.024,2.024,0,0,0-1.932-1.47,2.324,2.324,0,0,0-2.17,1.344h-.028L44.1-6.72h-.616c.028.532.056.994.056,1.61ZM60.06-3.43a1.666,1.666,0,0,0,.028-.406c0-.966-.42-3.038-2.618-3.038-1.736,0-3.024,1.4-3.024,3.64A3.08,3.08,0,0,0,57.582.14,4.494,4.494,0,0,0,59.7-.28l-.168-.532a3.9,3.9,0,0,1-1.862.378c-1.386,0-2.562-.84-2.562-3Zm-4.914-.532a2.388,2.388,0,0,1,2.24-2.366,2.065,2.065,0,0,1,2,2.366ZM61.8,0h.658V-4.158a2.008,2.008,0,0,1,.1-.6A2.147,2.147,0,0,1,64.568-6.3c1.386,0,1.862,1.106,1.862,2.324V0h.658V-4.032c0-2.52-1.694-2.842-2.338-2.842A2.522,2.522,0,0,0,62.44-5.5h-.028L62.356-6.72H61.74c.028.532.056.994.056,1.61Zm7.756-8.456V-6.72H68.418v.532h1.134v4.256a2.412,2.412,0,0,0,.42,1.6A1.394,1.394,0,0,0,71.12.14a2.656,2.656,0,0,0,.938-.154l-.084-.518a2.421,2.421,0,0,1-.77.112c-.714,0-.98-.546-.98-1.4V-6.188h1.918V-6.72H70.224V-8.666Z" transform="translate(121 40)" fill="#2f4b44"/><g transform="translate(14 22)"><path d="M9.028,0A9.028,9.028,0,0,0,0,8.636H0V21.59s2.618,0,2.618-2.226V15.383A9.028,9.028,0,1,0,9.028,0Zm0,15.438a6.41,6.41,0,1,1,6.41-6.41A6.41,6.41,0,0,1,9.028,15.438Z" transform="translate(0 0)" fill="#0a8543"/><path d="M107.7,0A9.028,9.028,0,0,0,98.67,8.636h0V21.59s2.614,0,2.614-2.226V15.383A9.028,9.028,0,1,0,107.7,0Zm0,15.438a6.41,6.41,0,1,1,6.41-6.41A6.41,6.41,0,0,1,107.7,15.438Z" transform="translate(-59.938 0)" fill="#0a8543"/><path d="M157.028,0A9.028,9.028,0,0,0,148,8.636h0V21.59s2.618,0,2.618-2.226V15.383A9.028,9.028,0,1,0,157.028,0Zm0,15.438a6.41,6.41,0,1,1,6.41-6.41,6.41,6.41,0,0,1-6.41,6.41Z" transform="translate(-89.904 0)" fill="#0a8543"/><path d="M206.358,0a9.028,9.028,0,1,0,9.028,9.028A9.028,9.028,0,0,0,206.358,0Zm0,15.438a6.41,6.41,0,1,1,6.414-6.412,6.41,6.41,0,0,1-6.414,6.412Z" transform="translate(-119.87 0)" fill="#0a8543"/><path d="M75.33,8.33a4.257,4.257,0,0,1,3.011,3.533h.915A4.71,4.71,0,0,0,75.33,8.33Z" transform="translate(-45.76 -5.06)" fill="#0a8543"/><path d="M58.362,0A9.028,9.028,0,1,0,66.5,12.954h-3.07a6.406,6.406,0,0,1-11.341-2.618H67.3A9.028,9.028,0,0,0,58.362,0Zm-.337,2.548a.864.864,0,0,1-.311-.644.656.656,0,1,1,1.307,0,.864.864,0,0,1-.311.644,6.355,6.355,0,0,1,5.935,4.911H52.081a6.363,6.363,0,0,1,5.947-4.911Zm4.894,5.566H53.808c-.55,0-1.727-.263-1.727-.526H64.644C64.642,7.851,63.857,8.114,62.918,8.114Z" transform="translate(-29.969 0)" fill="#0a8543"/></g></g></svg>