<svg xmlns="http://www.w3.org/2000/svg" width="109.402" height="24.729" viewBox="0 0 109.402 24.729"><g transform="translate(0 0)"><path d="M10.456,0A10.405,10.405,0,0,0,0,9.891H0V24.729s3.032,0,3.032-2.55V17.62a10.543,10.543,0,0,0,12.628,1.692,10.3,10.3,0,0,0,4.9-11.634A10.437,10.437,0,0,0,10.456,0Zm0,17.683a7.342,7.342,0,1,1,7.423-7.342A7.383,7.383,0,0,1,10.456,17.683Z" transform="translate(0 0)" fill="#fff"/><path d="M109.126,0A10.405,10.405,0,0,0,98.67,9.891h0V24.729s3.028,0,3.028-2.55V17.62a10.543,10.543,0,0,0,12.627,1.692,10.3,10.3,0,0,0,4.9-11.632A10.437,10.437,0,0,0,109.126,0Zm0,17.683a7.342,7.342,0,1,1,7.423-7.342,7.383,7.383,0,0,1-7.423,7.342Z" transform="translate(-54.422 0)" fill="#fff"/><path d="M158.456,0A10.405,10.405,0,0,0,148,9.891h0V24.729s3.032,0,3.032-2.55V17.62a10.543,10.543,0,0,0,12.628,1.692,10.3,10.3,0,0,0,4.9-11.634A10.437,10.437,0,0,0,158.456,0Zm0,17.683a7.342,7.342,0,1,1,7.423-7.342A7.383,7.383,0,0,1,158.456,17.683Z" transform="translate(-81.631 0)" fill="#fff"/><path d="M207.786,0a10.456,10.456,0,1,0,10.456,10.456A10.456,10.456,0,0,0,207.786,0Zm0,17.879a7.423,7.423,0,1,1,7.428-7.425,7.423,7.423,0,0,1-7.428,7.425Z" transform="translate(-108.839 0)" fill="#fff"/><path d="M75.33,8.33a4.93,4.93,0,0,1,3.487,4.092h1.059A5.455,5.455,0,0,0,75.33,8.33Z" transform="translate(-41.477 -4.593)" fill="#fff"/><path d="M59.789,0a10.456,10.456,0,1,0,9.419,15H65.653A7.419,7.419,0,0,1,52.52,11.97H70.134A10.456,10.456,0,0,0,59.789,0ZM59.4,2.951a1,1,0,0,1-.361-.745.759.759,0,1,1,1.514,0,1,1,0,0,1-.361.745,7.36,7.36,0,0,1,6.873,5.687H52.515A7.369,7.369,0,0,1,59.4,2.951ZM65.065,9.4H54.516c-.637,0-2-.3-2-.609H67.064C67.062,9.092,66.153,9.4,65.065,9.4Z" transform="translate(-27.211 0)" fill="#fff"/></g></svg>