<svg id="Layer_1" data-name="Layer 1" xmlns="http://www.w3.org/2000/svg" viewBox="0 0 18 18"><defs><style>.cls-1{fill:#9595be;isolation:isolate;}</style></defs><title>help</title><path id="ic_live_help_24px" data-name="ic live help 24px" class="cls-1" d="M14.33,1H3.67A1.53,1.53,0,0,0,2.14,2.52h0V13.19a1.53,1.53,0,0,0,1.53,1.52h3L9,17l2.29-2.29h3a1.53,1.53,0,0,0,1.53-1.52V2.52A1.53,1.53,0,0,0,14.33,1ZM9.76,13.19H8.24V11.67H9.76Zm1.58-5.9-.69.7a2.58,2.58,0,0,0-.89,2.15H8.24V9.76a3,3,0,0,1,.89-2.15l.94-1a1.51,1.51,0,0,0,.45-1.08,1.52,1.52,0,1,0-3-.1v.1H6a3.05,3.05,0,0,1,6.1,0,2.47,2.47,0,0,1-.71,1.72Z"/></svg>